<svg width="32" height="32" viewBox="0 0 32 32" fill="none" xmlns="http://www.w3.org/2000/svg">
<circle cx="16" cy="16" r="16" fill="#00041B"/>
<path d="M15.9484 27.8791C15.9997 27.8791 16.0339 27.8791 16.0853 27.8791C16.1024 27.8791 16.1366 27.8791 16.1537 27.8791C16.2051 27.8791 16.2564 27.8791 16.2906 27.8791C16.3077 27.8791 16.3249 27.8791 16.342 27.8791C16.4104 27.8791 16.4789 27.8791 16.5473 27.862C16.5473 27.862 16.5473 27.862 16.5644 27.862C16.6329 27.862 16.6842 27.862 16.7527 27.8449C16.7698 27.8449 16.7869 27.8449 16.804 27.8449C16.8553 27.8449 16.9067 27.8449 16.958 27.8278C16.9751 27.8278 16.9922 27.8278 17.0093 27.8278C17.0607 27.8278 17.112 27.8107 17.1805 27.8107C17.1976 27.8107 17.1976 27.8107 17.2147 27.8107C17.2831 27.8107 17.3516 27.7935 17.42 27.7935C17.4885 27.7935 17.5398 27.7764 17.6083 27.7593C17.6254 27.7593 17.6425 27.7593 17.6425 27.7593C17.6938 27.7593 17.7452 27.7422 17.7965 27.7422C17.8136 27.7422 17.8136 27.7422 17.8307 27.7422C17.8992 27.7251 17.9505 27.7251 18.019 27.708C18.1559 27.6909 18.2928 27.6567 18.4126 27.6224C18.4297 27.6224 18.4297 27.6224 18.4468 27.6224C18.4981 27.6053 18.5666 27.6053 18.6179 27.5882H18.635C18.7719 27.554 18.8917 27.5198 19.0286 27.4855C17.3858 27.5369 16.0511 27.3144 15.2126 27.1262C13.3302 26.7155 11.5334 25.9796 10.0104 24.7133C7.47779 22.5914 6.17726 19.5454 6.21148 16.5165C6.2286 14.2577 6.99865 11.9989 8.55587 10.1508C10.5067 7.84061 13.2789 6.62563 16.1195 6.55719C16.2564 6.55719 16.3762 6.55719 16.5131 6.55719V4.28125C16.3591 4.28125 16.2222 4.28125 16.0682 4.28125C15.1954 4.29836 14.3398 4.40104 13.5013 4.58927C12.6457 4.77751 11.8243 5.06842 11.0372 5.42777C10.2329 5.80424 9.47993 6.26628 8.77833 6.79676C8.05961 7.34435 7.39223 7.97751 6.81041 8.67911C6.26282 9.32938 5.78368 10.031 5.39009 10.7839C4.99651 11.5026 4.68849 12.2727 4.44892 13.0599C4.22646 13.8299 4.05533 14.6342 3.98688 15.4385C3.96977 15.6952 3.95266 15.9347 3.93555 16.1914C3.93555 16.2941 3.93555 16.3796 3.93555 16.4823C3.93555 16.5337 3.93555 16.585 3.93555 16.6363C3.95266 17.5091 4.05533 18.3647 4.24357 19.2032C4.4318 20.0588 4.72271 20.8802 5.08207 21.6673C5.50988 22.6085 6.27993 23.9946 7.42646 25.0385C9.68528 26.8181 12.543 27.8791 15.6404 27.8791C15.7088 27.8791 15.7773 27.8791 15.8457 27.8791C15.897 27.8791 15.9313 27.8791 15.9484 27.8791Z" fill="white"/>
<path d="M19.6791 25.6829C18.892 25.6658 17.9166 25.546 17.1636 25.4091C13.6385 24.776 10.6096 22.6198 9.49732 19.3685C8.14545 15.4155 10.216 11.1375 14.1519 9.83693C14.9219 9.58025 15.692 9.46046 16.4791 9.46046C17.4888 9.46046 18.4984 9.66581 19.4225 10.0423L20.3807 8.00592C20.0898 7.88613 19.7989 7.78346 19.508 7.68078C18.5326 7.37276 17.5059 7.21875 16.4791 7.21875C15.4524 7.21875 14.4257 7.38987 13.4503 7.71501C12.2011 8.1257 11.0545 8.79308 10.0791 9.66581C9.61711 10.0765 9.17219 10.5556 8.79572 11.0519C8.41925 11.5482 8.09411 12.0786 7.82032 12.6433C7.54652 13.2081 7.32406 13.7899 7.17005 14.3888C7.01604 14.9877 6.89625 15.6209 6.86203 16.254C6.77647 17.5546 6.94759 18.8551 7.3754 20.0872C7.8032 21.3364 8.4877 22.4829 9.42887 23.4925C10.2674 24.3995 11.2428 25.084 12.4235 25.7171C13.6556 26.3674 15.1786 26.7097 16.77 26.9321C17.7968 27.069 19.1658 27.1032 19.97 27.1032C20.6717 26.8466 20.9626 26.7268 21.339 26.5728C21.6642 26.4188 21.9893 26.2647 22.3144 26.0765C22.6396 25.8883 22.6909 25.854 23.2385 25.4947C23.2898 25.4605 23.3412 25.4262 23.3754 25.392C21.493 25.7171 21.0139 25.7 19.6791 25.6829Z" fill="white"/>
<path d="M23.8885 23.1363C23.358 23.1705 22.6051 23.2219 21.7495 23.2219C20.2265 23.2219 18.3613 23.085 16.7698 22.5545C14.3056 21.7331 11.9784 19.6283 11.9784 17.0272C11.9784 14.4261 14.0832 12.3384 16.6671 12.3384C18.4297 12.3384 19.9527 13.3138 20.757 14.7342L22.7933 13.7245C22.4682 13.1256 22.0746 12.578 21.5784 12.0989C20.9452 11.4657 20.1923 10.9523 19.3709 10.6101C18.5153 10.2507 17.6083 10.0625 16.6671 10.0625C15.726 10.0625 14.819 10.2507 13.9634 10.6101C13.142 10.9523 12.3891 11.4657 11.7559 12.0989C11.1228 12.732 10.6094 13.485 10.2671 14.3063C9.90778 15.162 9.71954 16.0689 9.71954 17.0101C9.71954 17.9513 9.92489 18.8924 10.3185 19.7823C10.6778 20.5695 11.1741 21.3053 11.8072 21.9898C12.9195 23.1876 14.4425 24.1459 16.0682 24.6935C17.6254 25.2069 19.9185 25.3951 22.1431 25.2411C22.7591 25.1898 23.2212 25.1384 24.0083 24.9673C24.7613 24.3684 25.4629 23.6839 26.0618 22.931C25.5313 22.9823 24.5559 23.085 23.8885 23.1363Z" fill="white"/>
</svg>
