<svg width="32" height="32" viewBox="0 0 32 32" fill="none" xmlns="http://www.w3.org/2000/svg">
<rect x="0.5" y="0.5" width="31" height="31" rx="15.5" stroke="#4048FF"/>
<path d="M20.9913 9.82409C12.5831 10.3146 9.28991 12.6268 8.93957 17.882C8.58923 23.6976 12.8634 27.131 22.0424 28.5324C18.8192 30.7045 12.2328 28.8126 9.28991 24.8187C5.9967 20.4745 6.62731 14.0983 10.6913 10.5948C13.9144 7.72204 18.4689 7.23156 20.9913 9.82409Z" fill="#454DFF"/>
<path d="M26.6666 25.52C22.7428 28.2527 18.819 27.2717 15.0353 25.52C11.672 24.0486 9.85021 20.405 10.4108 17.2519C11.0414 13.9587 13.0033 11.7866 16.3666 11.2961C19.4496 10.8057 21.8319 11.9968 23.5135 14.4492C23.3734 14.7295 23.1632 15.0798 23.0231 15.3601C22.3224 15.0098 21.6217 14.7295 20.9911 14.3091C17.9081 12.2771 14.8951 12.6975 13.0734 15.3601C11.3917 17.8125 12.0223 21.7363 14.8951 23.2778C17.2775 24.5391 20.1503 24.8894 22.8129 25.45C24.1442 25.7302 25.4054 25.52 26.6666 25.52Z" fill="#454DFF"/>
<path d="M12.6531 29.2484C5.99664 27.4967 2.84356 21.6109 4.38507 15.3048C5.8565 8.85848 11.7423 4.23396 18.3987 5.56526C12.5831 7.52718 7.67828 9.41902 6.27691 15.0946C4.94561 20.8402 7.04767 25.3246 12.6531 29.2484Z" fill="#454DFF"/>
</svg>
