<svg width="32" height="32" viewBox="0 0 32 32" fill="none" xmlns="http://www.w3.org/2000/svg">
<rect x="0.5" y="0.5" width="31" height="31" rx="15.5" stroke="#4149FF"/>
<path d="M14.9849 14.4025C14.9849 13.8724 14.9737 13.3856 14.9849 12.9042C14.9961 12.3254 14.7618 11.8981 14.2376 11.606C13.5627 11.2273 12.899 10.827 12.2298 10.4376C11.739 10.1509 11.2482 10.14 10.7462 10.4267C10.0769 10.8108 9.4021 11.1894 8.72168 11.5627C8.21973 11.8386 7.97434 12.2442 7.97991 12.8014C7.98549 13.5641 7.99107 14.3268 7.97991 15.0895C7.97434 15.6467 8.20858 16.0578 8.71053 16.3391C9.39095 16.7231 10.0602 17.1234 10.7351 17.5183C11.2259 17.805 11.7166 17.8158 12.2186 17.5291C14.7451 16.101 17.2716 14.673 19.798 13.245C20.2665 12.9799 20.7462 12.9637 21.2258 13.2341C22.5755 13.9914 23.9252 14.7541 25.2749 15.506C25.7657 15.7819 26.0055 16.1822 25.9999 16.7339C25.9943 18.2593 25.9943 19.7848 25.9999 21.3102C25.9999 21.8673 25.7601 22.273 25.2581 22.5489C23.9363 23.2845 22.6145 24.0256 21.2983 24.7721C20.7741 25.0696 20.2721 25.0804 19.7423 24.7775C18.4428 24.031 17.1321 23.3008 15.8215 22.5759C15.2861 22.2784 15.0128 21.8619 15.0351 21.2561C15.0518 20.8071 15.0351 20.3527 15.0407 19.8983C15.0407 19.8334 15.0686 19.7415 15.1188 19.7144C15.7322 19.3574 16.3569 19.0166 17.0039 18.6488C17.0094 18.7408 17.015 18.8003 17.015 18.8652C17.015 19.2979 17.015 19.7307 17.015 20.1634C17.015 20.6935 17.2381 21.0938 17.7233 21.3643C18.4205 21.7483 19.1065 22.1432 19.8036 22.5327C20.2833 22.7977 20.7629 22.8085 21.2481 22.5273C21.9118 22.1378 22.5755 21.7591 23.2392 21.3805C23.7244 21.1046 23.9698 20.7043 23.9642 20.1472C23.9531 19.3737 23.9586 18.5947 23.9642 17.8212C23.9698 17.2857 23.7356 16.8908 23.2559 16.6257C22.5643 16.2417 21.8839 15.8522 21.1923 15.4682C20.7071 15.1977 20.2219 15.1923 19.7255 15.4736C17.2269 16.8854 14.7283 18.2864 12.2298 19.6928C11.739 19.9687 11.2482 19.9849 10.7462 19.6982C9.40768 18.9355 8.05799 18.189 6.71388 17.4317C6.23982 17.1721 6 16.7772 6 16.2417C6.00558 14.7163 6.00558 13.1909 6 11.6655C6 11.1516 6.21751 10.7892 6.686 10.5295C8.05242 9.77221 9.40768 8.99869 10.7629 8.22517C11.2872 7.92766 11.7892 7.92225 12.319 8.22517C13.6129 8.97164 14.9124 9.7073 16.2119 10.4376C16.725 10.7242 16.9871 11.1299 16.9648 11.7141C16.9481 12.1956 16.9648 12.6716 16.9592 13.153C16.9592 13.2179 16.9313 13.3099 16.8812 13.3369C16.2677 13.6885 15.6486 14.0347 14.9849 14.4025Z" fill="#4048FF"/>
</svg>
